<svg xmlns="http://www.w3.org/2000/svg" xmlns:xlink="http://www.w3.org/1999/xlink" width="150" zoomAndPan="magnify" viewBox="0 0 112.5 74.999997" height="100" preserveAspectRatio="xMidYMid meet" version="1.0"><defs><g/><clipPath id="b7b95ea773"><path d="M 53 9 L 82.492188 9 L 82.492188 50.941406 L 53 50.941406 Z M 53 9 " clip-rule="nonzero"/></clipPath><clipPath id="caa7b381b8"><path d="M 32.464844 9 L 61 9 L 61 50.941406 L 32.464844 50.941406 Z M 32.464844 9 " clip-rule="nonzero"/></clipPath></defs><g clip-path="url(#b7b95ea773)"><path fill="#6cace3" d="M 60.800781 22.980469 C 60.8125 22.410156 60.882812 21.222656 60.871094 20.375 C 59.222656 23.457031 56.273438 24.210938 53.476562 23.34375 C 55.335938 23.566406 57.046875 22.679688 57.328125 18.886719 C 57.5 16.691406 58.296875 15.738281 59.140625 15.355469 C 58.9375 14.480469 58.878906 13.5625 59.101562 12.707031 C 60.449219 7.644531 71.144531 9.878906 68.550781 10.964844 C 66.859375 11.671875 65.359375 13.5625 65.640625 13.300781 C 68.941406 10.230469 69.253906 12.152344 69.464844 13.300781 C 69.707031 14.589844 68.902344 15.132812 69.464844 16.914062 C 70.613281 17.769531 69.675781 17.929688 69.675781 17.929688 C 69.597656 18.222656 69.71875 18.875 69.464844 18.886719 C 69.042969 18.90625 69.203125 19.398438 69.464844 19.460938 C 68.367188 23.023438 68.007812 22.4375 66.042969 21.554688 C 62.289062 28.648438 72.828125 27.359375 71.046875 31.816406 C 70.875 32.242188 70.742188 32.84375 70.644531 33.578125 C 69.988281 33.105469 69.34375 32.542969 69.011719 32.210938 C 69.144531 32.5625 69.839844 33.71875 71.296875 34.535156 C 72.324219 35.5 73.179688 36.144531 73.589844 36.105469 C 74.398438 36.023438 75.703125 34.957031 76.933594 33.570312 C 74.347656 33.40625 72.292969 31.253906 72.292969 28.628906 C 72.292969 27.460938 72.695312 26.382812 73.378906 25.527344 C 74.226562 24.84375 75.300781 24.441406 76.480469 24.441406 C 79.207031 24.441406 81.429688 26.65625 81.429688 29.390625 C 81.429688 30.558594 81.027344 31.636719 80.34375 32.492188 C 79.910156 32.835938 79.429688 33.105469 78.90625 33.296875 C 77.34375 36.425781 74.96875 40.542969 73.492188 40.109375 C 72.554688 39.828125 71.519531 39.214844 70.460938 38.429688 C 70.601562 42.785156 71.476562 47.96875 73.371094 50.566406 L 57.460938 50.566406 C 60.992188 47.648438 61.3125 43.027344 60.800781 40.300781 C 57.609375 39.597656 53.90625 38.5 54.078125 37.160156 C 54.972656 30.054688 57.117188 26.90625 59.082031 24.863281 L 59.109375 24.925781 C 59.101562 24.902344 59.101562 24.875 59.101562 24.855469 C 59.574219 24.359375 60.046875 23.929688 60.480469 23.515625 C 61.023438 23.214844 61.597656 22.960938 61.9375 22.839844 C 61.757812 22.8125 61.335938 22.832031 60.800781 22.980469 Z M 59.191406 31.726562 C 58.296875 33.316406 57.167969 35.269531 57.460938 35.671875 C 57.882812 36.265625 59.273438 37.574219 60.316406 38.308594 C 59.875 36.730469 59.222656 31.96875 59.191406 31.726562 Z M 73.410156 25.476562 C 74.316406 24.382812 75.695312 23.675781 77.222656 23.675781 C 79.953125 23.675781 82.175781 25.890625 82.175781 28.628906 C 82.175781 30.078125 81.550781 31.375 80.566406 32.28125 C 81.269531 31.425781 81.703125 30.328125 81.703125 29.128906 C 81.703125 26.402344 79.488281 24.179688 76.75 24.179688 C 75.464844 24.179688 74.296875 24.671875 73.410156 25.476562 Z M 77.222656 26.253906 C 78.53125 26.253906 79.597656 27.320312 79.597656 28.628906 C 79.597656 29.9375 78.53125 31.003906 77.222656 31.003906 C 75.917969 31.003906 74.847656 29.9375 74.847656 28.628906 C 74.847656 27.320312 75.917969 26.253906 77.222656 26.253906 Z M 76.269531 27.964844 C 76.480469 27.660156 76.832031 27.460938 77.234375 27.460938 C 77.878906 27.460938 78.402344 27.984375 78.402344 28.628906 C 78.402344 29.121094 78.101562 29.542969 77.667969 29.714844 C 77.796875 29.523438 77.878906 29.300781 77.878906 29.050781 C 77.878906 28.40625 77.355469 27.882812 76.710938 27.882812 C 76.550781 27.882812 76.398438 27.914062 76.269531 27.964844 Z M 76.269531 27.964844 " fill-opacity="1" fill-rule="evenodd"/></g><g clip-path="url(#caa7b381b8)"><path fill="#242424" d="M 49.277344 43.882812 C 49.238281 43.097656 49.1875 42.261719 49.148438 41.417969 C 49.359375 40.792969 49.660156 40.160156 49.851562 39.816406 C 49.621094 39.980469 49.046875 40.574219 48.683594 41.5 C 47.96875 43.332031 46.671875 43.632812 46.410156 43.640625 C 44.570312 43.734375 40.28125 38.953125 37.292969 36.386719 C 34.597656 36.195312 32.464844 33.949219 32.464844 31.203125 C 32.464844 28.335938 34.789062 26.011719 37.65625 26.011719 C 40.523438 26.011719 42.847656 28.335938 42.847656 31.203125 C 42.847656 32.613281 42.285156 33.902344 41.367188 34.835938 L 42.273438 35.570312 C 43.078125 36.226562 44.097656 36.46875 45.050781 36.316406 C 45.425781 36.335938 45.765625 36.398438 46.078125 36.476562 C 45.886719 36.347656 45.644531 36.246094 45.375 36.15625 C 45.625 35.328125 46.199219 34.453125 47.035156 33.710938 C 47.386719 33.398438 47.75 33.136719 48.121094 32.925781 C 48.453125 32.761719 48.785156 32.632812 49.109375 32.53125 L 49.117188 32.441406 L 49.117188 32.402344 C 48.785156 32.410156 48.414062 32.480469 48.019531 32.601562 C 47.488281 31.625 47.609375 30.015625 48.421875 28.507812 C 49.1875 27.089844 50.355469 26.132812 51.410156 25.941406 C 51.601562 25.738281 51.816406 25.546875 52.046875 25.378906 C 52.75 24.84375 53.535156 24.390625 54.308594 24 C 56.210938 24.308594 58.203125 23.835938 59.652344 22.628906 C 59.675781 22.761719 59.695312 22.882812 59.722656 23.003906 C 59.824219 23.113281 59.925781 23.222656 60.015625 23.335938 C 59.542969 23.777344 59.082031 24.21875 58.636719 24.683594 C 55.578125 27.914062 54.300781 32.332031 53.6875 36.667969 C 53.574219 37.503906 53.898438 38.148438 54.441406 38.558594 C 56.183594 39.847656 58.335938 40.210938 60.398438 40.664062 C 60.871094 43.78125 60.125 47.164062 57.953125 49.46875 C 57.761719 49.679688 57.703125 49.742188 57.308594 50.082031 C 57.117188 50.242188 57.027344 50.414062 57.015625 50.554688 L 48.703125 50.554688 C 48.925781 50.242188 49.085938 49.789062 49.1875 49.207031 C 50.175781 48.601562 50.910156 48.753906 50.867188 48.695312 C 50.675781 48.351562 50.074219 48.128906 49.269531 48.53125 C 49.320312 48.019531 49.339844 47.4375 49.339844 46.792969 C 50.535156 45.855469 51.484375 46.058594 51.441406 45.988281 C 51.210938 45.574219 50.386719 45.34375 49.339844 46.148438 C 49.328125 45.625 49.308594 45.070312 49.289062 44.488281 C 50.757812 42.878906 52.078125 43.167969 52.027344 43.089844 C 51.773438 42.59375 50.628906 42.355469 49.277344 43.882812 Z M 34.273438 28.488281 C 35.019531 27.894531 35.964844 27.53125 36.992188 27.53125 C 39.398438 27.53125 41.339844 29.484375 41.339844 31.878906 C 41.339844 32.90625 40.976562 33.851562 40.382812 34.59375 C 39.636719 35.1875 38.691406 35.550781 37.664062 35.550781 C 35.261719 35.550781 33.316406 33.597656 33.316406 31.203125 C 33.316406 30.175781 33.671875 29.230469 34.273438 28.488281 Z M 34.316406 28.4375 C 35.109375 27.46875 36.316406 26.855469 37.664062 26.855469 C 40.070312 26.855469 42.011719 28.808594 42.011719 31.203125 C 42.011719 32.472656 41.46875 33.617188 40.59375 34.414062 C 41.21875 33.660156 41.589844 32.691406 41.589844 31.648438 C 41.589844 29.242188 39.636719 27.300781 37.242188 27.300781 C 36.117188 27.300781 35.089844 27.722656 34.316406 28.4375 Z M 37.664062 29.121094 C 38.8125 29.121094 39.75 30.058594 39.75 31.203125 C 39.75 32.351562 38.8125 33.285156 37.664062 33.285156 C 36.519531 33.285156 35.582031 32.351562 35.582031 31.203125 C 35.582031 30.058594 36.519531 29.121094 37.664062 29.121094 Z M 36.820312 30.621094 C 37 30.347656 37.3125 30.175781 37.664062 30.175781 C 38.230469 30.175781 38.691406 30.640625 38.691406 31.203125 C 38.691406 31.636719 38.421875 32.007812 38.046875 32.160156 C 38.160156 32 38.230469 31.796875 38.230469 31.578125 C 38.230469 31.011719 37.765625 30.550781 37.203125 30.550781 C 37.070312 30.550781 36.941406 30.570312 36.820312 30.621094 Z M 54.703125 22.839844 C 54.511719 22.449219 54.261719 22.015625 53.949219 21.542969 C 52.671875 22.367188 51.886719 22.640625 51.53125 20.054688 L 51.058594 19.621094 C 51.292969 19.167969 51.703125 19.097656 51.058594 18.917969 L 50.65625 17.457031 C 49.820312 17.660156 49.589844 17.386719 50.65625 16.078125 C 50.355469 14.488281 50.566406 14.519531 50.65625 13.453125 C 50.023438 12.527344 50.597656 11.339844 51.53125 10.746094 C 53.476562 9.527344 57.773438 8.761719 59.785156 10.726562 C 59.703125 10.796875 59.632812 10.875 59.5625 10.957031 C 58.144531 12.527344 58.636719 15.113281 58.636719 15.113281 C 57.671875 15.726562 57.199219 16.855469 57.007812 17.941406 C 56.96875 18.152344 56.957031 18.183594 56.917969 18.625 C 56.796875 19.964844 56.65625 21.632812 55.4375 22.5 C 55.214844 22.671875 54.964844 22.769531 54.703125 22.839844 Z M 54.703125 22.839844 " fill-opacity="1" fill-rule="evenodd"/></g><g fill="#242424" fill-opacity="1"><g transform="translate(19.60501, 61.353069)"><g><path d="M 3.34375 0 L 0.703125 0 L 3.34375 -7.296875 L 5.75 -7.296875 L 8.125 -2.96875 L 9.6875 -7.296875 L 12.328125 -7.296875 L 10.015625 -0.9375 C 9.941406 -0.738281 9.816406 -0.59375 9.640625 -0.5 L 8.8125 -0.09375 C 8.71875 -0.03125 8.613281 0 8.5 0 L 7.28125 0 L 4.84375 -4.140625 Z M 3.34375 0 "/></g></g></g><g fill="#242424" fill-opacity="1"><g transform="translate(29.989148, 61.353069)"><g><path d="M 5.34375 -5.53125 L 4.96875 -4.46875 L 9.6875 -4.46875 L 9.078125 -2.828125 L 4.359375 -2.828125 L 4.171875 -2.3125 C 4.117188 -2.15625 4.128906 -2.023438 4.203125 -1.921875 C 4.273438 -1.816406 4.390625 -1.765625 4.546875 -1.765625 L 9.171875 -1.765625 L 8.53125 0 L 2.984375 0 C 2.742188 0 2.570312 -0.0546875 2.46875 -0.171875 L 1.484375 -0.96875 C 1.378906 -1.070312 1.316406 -1.195312 1.296875 -1.34375 C 1.285156 -1.488281 1.304688 -1.640625 1.359375 -1.796875 L 3.34375 -7.296875 L 11.1875 -7.296875 L 10.546875 -5.53125 Z M 5.34375 -5.53125 "/></g></g></g><g fill="#242424" fill-opacity="1"><g transform="translate(39.152283, 61.353069)"><g><path d="M 8.875 -3.671875 L 9.78125 -0.0625 L 9.765625 0 L 6.65625 0 L 6.21875 -2.984375 L 3.65625 0 L 0.546875 0 L 0.578125 -0.0625 L 4.09375 -3.671875 L 3.171875 -7.21875 L 3.1875 -7.296875 L 6.296875 -7.296875 L 6.703125 -4.3125 L 9.296875 -7.296875 L 12.40625 -7.296875 L 12.375 -7.21875 Z M 8.875 -3.671875 "/></g></g></g><g fill="#242424" fill-opacity="1"><g transform="translate(49.458009, 61.353069)"><g><path d="M 9.8125 -7.296875 L 12.453125 -7.296875 L 10.578125 -2.125 C 10.503906 -1.9375 10.398438 -1.773438 10.265625 -1.640625 C 10.140625 -1.515625 10.003906 -1.410156 9.859375 -1.328125 L 7.78125 -0.171875 C 7.6875 -0.109375 7.585938 -0.0625 7.484375 -0.03125 C 7.390625 -0.0078125 7.289062 0 7.1875 0 L 2.109375 0 C 1.722656 0 1.441406 -0.132812 1.265625 -0.40625 C 1.085938 -0.675781 1.066406 -1.007812 1.203125 -1.40625 L 3.34375 -7.296875 L 5.984375 -7.296875 L 4.171875 -2.3125 C 4.117188 -2.15625 4.125 -2.023438 4.1875 -1.921875 C 4.257812 -1.816406 4.375 -1.765625 4.53125 -1.765625 L 7.265625 -1.765625 C 7.410156 -1.765625 7.554688 -1.816406 7.703125 -1.921875 C 7.847656 -2.023438 7.945312 -2.15625 8 -2.3125 Z M 9.8125 -7.296875 "/></g></g></g><g fill="#242424" fill-opacity="1"><g transform="translate(59.965367, 61.353069)"><g><path d="M 10.4375 -4.53125 L 9.5625 -2.125 C 9.507812 -1.957031 9.421875 -1.804688 9.296875 -1.671875 C 9.171875 -1.546875 9.023438 -1.429688 8.859375 -1.328125 L 6.78125 -0.171875 C 6.6875 -0.109375 6.585938 -0.0625 6.484375 -0.03125 C 6.390625 -0.0078125 6.289062 0 6.1875 0 L 0.65625 0 L 1.296875 -1.765625 L 6.25 -1.765625 C 6.40625 -1.765625 6.550781 -1.816406 6.6875 -1.921875 C 6.832031 -2.023438 6.929688 -2.15625 6.984375 -2.3125 L 7.171875 -2.78125 L 1.671875 -2.78125 L 2.53125 -5.171875 C 2.664062 -5.515625 2.910156 -5.789062 3.265625 -6 L 5.328125 -7.125 C 5.429688 -7.1875 5.53125 -7.226562 5.625 -7.25 C 5.726562 -7.28125 5.828125 -7.296875 5.921875 -7.296875 L 11.4375 -7.296875 L 10.796875 -5.53125 L 5.859375 -5.53125 C 5.703125 -5.53125 5.550781 -5.476562 5.40625 -5.375 C 5.257812 -5.269531 5.15625 -5.140625 5.09375 -4.984375 L 4.9375 -4.53125 Z M 10.4375 -4.53125 "/></g></g></g><g fill="#242424" fill-opacity="1"><g transform="translate(69.419751, 61.353069)"><g><path d="M 3.703125 -0.9375 C 3.617188 -0.738281 3.488281 -0.59375 3.3125 -0.5 L 2.5 -0.09375 C 2.40625 -0.03125 2.300781 0 2.1875 0 L 0.703125 0 L 3.34375 -7.296875 L 11.03125 -7.296875 L 10.390625 -5.53125 L 5.359375 -5.53125 L 4.984375 -4.46875 L 9.546875 -4.46875 L 8.9375 -2.828125 L 4.375 -2.828125 Z M 3.703125 -0.9375 "/></g></g></g><g fill="#242424" fill-opacity="1"><g transform="translate(78.280432, 61.353069)"><g><path d="M 3.90625 -0.9375 C 3.832031 -0.75 3.710938 -0.601562 3.546875 -0.5 L 2.71875 -0.09375 C 2.625 -0.03125 2.515625 0 2.390625 0 L 0.9375 0 L 3.25 -6.359375 C 3.320312 -6.554688 3.445312 -6.695312 3.625 -6.78125 L 4.4375 -7.203125 C 4.53125 -7.265625 4.640625 -7.296875 4.765625 -7.296875 L 6.21875 -7.296875 Z M 3.90625 -0.9375 "/></g></g></g><g fill="#242424" fill-opacity="1"><g transform="translate(82.794786, 61.353069)"><g><path d="M 2.46875 -5.53125 L 3.109375 -7.296875 L 11.78125 -7.296875 L 11.140625 -5.53125 L 8.125 -5.53125 L 6.453125 -0.9375 C 6.378906 -0.738281 6.253906 -0.59375 6.078125 -0.5 L 5.265625 -0.09375 C 5.171875 -0.03125 5.0625 0 4.9375 0 L 3.484375 0 L 5.484375 -5.53125 Z M 2.46875 -5.53125 "/></g></g></g></svg>